<svg width="279" height="94" viewBox="0 0 279 94" fill="none" xmlns="http://www.w3.org/2000/svg">
<g id="Size=Default, Style=Default, Version=Default">
<g id="Text">
<path id="Vector" d="M116.298 33.9235H129.919L132.931 42.885H139.946L127.159 6.59919H119.075L106.265 42.885H113.303L116.301 33.9235H116.298ZM122.946 14.0531H123.238L128.15 28.6638H118.058L122.946 14.0531Z" fill="#03030A"/>
<path id="Vector_2" d="M152.806 42.885L162.5 15.6615H155.729L149.469 35.8963H149.177L142.869 15.6615H136.025L145.693 42.885H152.806Z" fill="#03030A"/>
<path id="Vector_3" d="M171.463 15.6615H165.057V42.8878H171.463V15.6615Z" fill="#03030A"/>
<path id="Vector_4" d="M168.271 11.8365C169.279 11.8365 170.147 11.4946 170.877 10.8137C171.606 10.1328 171.971 9.30332 171.971 8.32815C171.971 7.35299 171.606 6.55156 170.877 5.86782C170.147 5.18688 169.276 4.84501 168.271 4.84501C167.266 4.84501 166.371 5.18688 165.641 5.86782C164.911 6.54875 164.546 7.37821 164.546 8.35057C164.546 9.32294 164.911 10.1272 165.641 10.8109C166.371 11.4918 167.25 11.8337 168.271 11.8337V11.8365Z" fill="#03030A"/>
<path id="Vector_5" d="M196.765 39.2589C197.756 37.9447 198.25 36.4343 198.25 34.7305C198.25 32.7998 197.615 31.225 196.349 30.006C195.083 28.7871 193.174 27.9128 190.625 27.3775L185.974 26.4024C184.593 26.0941 183.607 25.685 183.015 25.1722C182.423 24.6622 182.125 24.0065 182.125 23.2107C182.125 22.3028 182.574 21.5546 183.478 20.9717C184.379 20.386 185.497 20.0946 186.827 20.0946C188.304 20.0946 189.449 20.4393 190.26 21.1286C191.072 21.818 191.6 22.611 191.844 23.5021L197.666 22.894C197.228 20.5878 196.094 18.7496 194.269 17.3793C192.442 16.009 189.929 15.3225 186.732 15.3225C184.556 15.3225 182.639 15.6643 180.983 16.3453C179.326 17.0262 178.035 17.9846 177.111 19.2203C176.185 20.4533 175.725 21.9161 175.725 23.603C175.725 25.5841 176.351 27.2122 177.6 28.4872C178.849 29.7622 180.783 30.6842 183.397 31.2502L188.048 32.2254C190.485 32.7774 191.701 33.817 191.701 35.3414C191.701 36.2521 191.237 37.0171 190.314 37.642C189.387 38.2669 188.161 38.5808 186.636 38.5808C185.112 38.5808 183.978 38.2697 183.043 37.642C182.108 37.0171 181.505 36.0952 181.23 34.8791L174.969 35.4647C175.377 37.9643 176.589 39.9174 178.61 41.3213C180.632 42.7252 183.307 43.4286 186.636 43.4286C188.91 43.4286 190.917 43.0643 192.663 42.3329C194.41 41.6015 195.777 40.5787 196.768 39.2645L196.765 39.2589Z" fill="#03030A"/>
<path id="Vector_6" d="M132.735 50.6218L123.311 79.1623H122.92L113.497 50.6218H106.262L119.072 86.9048H127.159L139.946 50.6218H132.735Z" fill="#03030A"/>
<path id="Vector_7" d="M147.692 56.2963H152.343L157.261 49.1115H151.077L147.692 56.2963Z" fill="#03030A"/>
<path id="Vector_8" d="M159.078 62.6265C157.916 61.5056 156.585 60.679 155.083 60.1437C153.581 59.6085 151.995 59.3395 150.322 59.3395C147.722 59.3395 145.468 59.9336 143.551 61.1161C141.634 62.3014 140.149 63.9547 139.093 66.0732C138.037 68.1917 137.51 70.6548 137.51 73.4654C137.51 76.276 138.04 78.7728 139.104 80.8689C140.168 82.9649 141.69 84.5818 143.672 85.7279C145.654 86.8712 148.006 87.4456 150.735 87.4456C152.846 87.4456 154.715 87.1262 156.349 86.4845C157.98 85.8428 159.319 84.9349 160.366 83.7579C161.413 82.581 162.132 81.2051 162.522 79.6303L156.532 78.9241C156.24 79.7031 155.821 80.3589 155.277 80.8857C154.732 81.4125 154.084 81.8076 153.328 82.0654C152.573 82.326 151.742 82.4549 150.833 82.4549C149.435 82.4549 148.214 82.1467 147.167 81.5302C146.119 80.9137 145.308 80.017 144.73 78.8401C144.211 77.7808 143.927 76.5254 143.877 75.0767H162.814V73.0787C162.814 70.6912 162.48 68.6344 161.815 66.9055C161.149 65.1765 160.234 63.753 159.075 62.6321L159.078 62.6265ZM146.838 65.3054C147.812 64.6553 148.989 64.3302 150.37 64.3302C151.751 64.3302 152.902 64.6553 153.828 65.3054C154.755 65.9555 155.451 66.8522 155.922 67.9955C156.259 68.8138 156.473 69.7357 156.568 70.7585H143.902C143.986 69.7357 144.222 68.7885 144.62 67.9227C145.123 66.827 145.864 65.9555 146.838 65.3054Z" fill="#03030A"/>
<path id="Vector_9" d="M179.498 59.3143C177.94 59.3143 176.55 59.7402 175.332 60.5921C174.113 61.444 173.263 62.6657 172.774 64.2574H172.482V59.6786H166.273V86.9048H172.679V70.9294C172.679 69.7609 172.943 68.7381 173.47 67.861C173.998 66.9839 174.725 66.2946 175.652 65.7902C176.578 65.2886 177.634 65.0364 178.818 65.0364C179.354 65.0364 179.913 65.07 180.5 65.1345C181.084 65.1989 181.513 65.2802 181.791 65.3783V59.4852C181.499 59.4376 181.129 59.3956 180.682 59.3647C180.236 59.3339 179.843 59.3171 179.5 59.3171L179.498 59.3143Z" fill="#03030A"/>
<path id="Vector_10" d="M187.414 48.8677C186.392 48.8677 185.513 49.2095 184.784 49.8905C184.054 50.5714 183.689 51.4009 183.689 52.3732C183.689 53.3456 184.054 54.1498 184.784 54.8336C185.513 55.5145 186.392 55.8564 187.414 55.8564C188.436 55.8564 189.289 55.5145 190.019 54.8336C190.749 54.1526 191.114 53.3232 191.114 52.348C191.114 51.3728 190.749 50.5714 190.019 49.8877C189.289 49.2067 188.419 48.8649 187.414 48.8649V48.8677Z" fill="#03030A"/>
<path id="Vector_11" d="M190.606 59.6814H184.2V86.9076H190.606V59.6814Z" fill="#03030A"/>
<path id="Vector_12" d="M205.608 48.9153C204.05 48.9153 202.624 49.2151 201.332 49.8176C200.041 50.4173 199.013 51.328 198.25 52.5442C197.486 53.7631 197.104 55.2875 197.104 57.123V59.6814H193.11V64.6497H197.104V86.9076H203.485V64.6497H209.162V59.6814H203.485V57.5853C203.485 56.5149 203.741 55.6854 204.252 55.1026C204.763 54.5169 205.61 54.2255 206.798 54.2255C207.317 54.2255 207.78 54.2703 208.187 54.36C208.595 54.4497 208.926 54.5421 209.187 54.6402L210.501 49.6719C210.094 49.5262 209.456 49.3637 208.589 49.1843C207.721 49.005 206.725 48.9153 205.605 48.9153H205.608Z" fill="#03030A"/>
<path id="Vector_13" d="M218.76 59.6814H212.353V86.9076H218.76V59.6814Z" fill="#03030A"/>
<path id="Vector_14" d="M215.568 48.8677C214.546 48.8677 213.667 49.2095 212.937 49.8905C212.207 50.5714 211.843 51.4009 211.843 52.3732C211.843 53.3456 212.207 54.1498 212.937 54.8336C213.667 55.5145 214.546 55.8564 215.568 55.8564C216.59 55.8564 217.443 55.5145 218.173 54.8336C218.903 54.1526 219.268 53.3232 219.268 52.348C219.268 51.3728 218.903 50.5714 218.173 49.8877C217.443 49.2067 216.573 48.8649 215.568 48.8649V48.8677Z" fill="#03030A"/>
<path id="Vector_15" d="M242.065 49.1115H235.881L232.495 56.2963H237.147L242.065 49.1115Z" fill="#03030A"/>
<path id="Vector_16" d="M243.881 62.6265C242.719 61.5056 241.389 60.679 239.887 60.1437C238.385 59.6085 236.799 59.3395 235.126 59.3395C232.526 59.3395 230.269 59.9336 228.355 61.1161C226.437 62.3014 224.952 63.9547 223.897 66.0732C222.841 68.1917 222.313 70.6548 222.313 73.4654C222.313 76.276 222.844 78.7728 223.908 80.8689C224.972 82.9649 226.493 84.5818 228.475 85.7279C230.457 86.8712 232.81 87.4456 235.538 87.4456C237.649 87.4456 239.519 87.1262 241.153 86.4845C242.784 85.8428 244.123 84.9349 245.17 83.7579C246.217 82.581 246.936 81.2051 247.326 79.6303L241.335 78.9241C241.043 79.7031 240.625 80.3589 240.08 80.8857C239.536 81.4125 238.887 81.8076 238.132 82.0654C237.377 82.326 236.546 82.4549 235.637 82.4549C234.239 82.4549 233.017 82.1467 231.97 81.5302C230.923 80.9137 230.112 80.017 229.534 78.8401C229.014 77.7808 228.731 76.5254 228.68 75.0767H247.618V73.0787C247.618 70.6912 247.284 68.6344 246.619 66.9055C245.953 65.1765 245.038 63.753 243.879 62.6321L243.881 62.6265ZM231.642 65.3054C232.616 64.6553 233.792 64.3302 235.173 64.3302C236.555 64.3302 237.706 64.6553 238.632 65.3054C239.558 65.9555 240.255 66.8522 240.726 67.9955C241.063 68.8138 241.276 69.7357 241.372 70.7585H228.706C228.79 69.7357 229.026 68.7885 229.424 67.9227C229.927 66.827 230.668 65.9555 231.639 65.3054H231.642Z" fill="#03030A"/>
<path id="Vector_17" d="M271.244 74.0231C269.978 72.8041 268.069 71.9298 265.52 71.3946L260.868 70.4194C259.487 70.1112 258.502 69.7021 257.909 69.1893C257.317 68.6793 257.019 68.0235 257.019 67.2277C257.019 66.3198 257.469 65.5716 258.372 64.9888C259.274 64.4031 260.391 64.1117 261.721 64.1117C263.198 64.1117 264.343 64.4563 265.155 65.1457C265.966 65.835 266.494 66.628 266.738 67.5191L272.56 66.9111C272.122 64.6049 270.988 62.7666 269.163 61.3963C267.336 60.0232 264.823 59.3395 261.626 59.3395C259.45 59.3395 257.533 59.6814 255.877 60.3623C254.221 61.0433 252.929 62.0016 252.006 63.2374C251.079 64.4703 250.619 65.9331 250.619 67.62C250.619 69.6012 251.245 71.2293 252.494 72.5043C253.743 73.7793 255.678 74.7012 258.291 75.2673L262.943 76.2424C265.379 76.7944 266.595 77.8341 266.595 79.3585C266.595 80.2692 266.132 81.0342 265.208 81.6591C264.282 82.284 263.058 82.5978 261.531 82.5978C260.003 82.5978 258.872 82.2868 257.937 81.6591C257.003 81.0342 256.399 80.1123 256.124 78.8961L249.864 79.4818C250.271 81.9813 251.483 83.9345 253.505 85.3384C255.526 86.7423 258.201 87.4456 261.531 87.4456C263.804 87.4456 265.812 87.0813 267.558 86.35C269.304 85.6186 270.671 84.5958 271.662 83.2816C272.653 81.9673 273.147 80.4569 273.147 78.7532C273.147 76.8197 272.512 75.2476 271.246 74.0287L271.244 74.0231Z" fill="#03030A"/>
</g>
<g id="Star">
<path id="Vector_18" d="M25.1921 17.9818C13.879 17.9818 4.70773 27.1366 4.70773 38.4294H39.0206L45.6765 17.9818H25.1921Z" fill="#0073FF"/>
<path id="Vector_19" d="M67.5421 18.9821C64.0471 8.24129 52.4897 2.36506 41.7296 5.85381L52.3325 38.4295H73.8724L67.5421 18.9821Z" fill="#0073FF"/>
<path id="Vector_20" d="M79.675 59.4964C88.8266 52.858 90.8562 40.0715 84.2059 30.9335L56.4451 51.0674L63.1011 71.5151L79.6722 59.4964H79.675Z" fill="#0073FF"/>
<path id="Vector_21" d="M44.8231 83.5338C53.9747 90.1722 66.7869 88.1462 73.4373 79.011L45.6765 58.8772L28.252 71.5151L44.8231 83.5338Z" fill="#0073FF"/>
<path id="Vector_22" d="M11.1531 57.8768C7.65813 68.6176 13.5449 80.1543 24.305 83.643L34.908 51.0674L17.4835 38.4295L11.1531 57.8768Z" fill="#0073FF"/>
</g>
</g>
</svg>
